<?xml version="1.0" encoding="UTF-8"?>
<svg width="128px" height="128px" viewBox="0 0 128 128" version="1.1" xmlns="http://www.w3.org/2000/svg" xmlns:xlink="http://www.w3.org/1999/xlink">
    <!-- Generator: Sketch 42 (36781) - http://www.bohemiancoding.com/sketch -->
    <title>Artboard 4</title>
    <desc>Created with Sketch.</desc>
    <defs></defs>
    <g id="sharing-osx" stroke="none" stroke-width="1" fill="none" fill-rule="evenodd">
        <g id="Artboard-4" fill-rule="nonzero" fill="#BEC2C9">
            <path d="M118.519,5.32907052e-15 L9.448,5.32907052e-15 C4.233,5.32907052e-15 0,4.134 0,9.222 L0,118.764 C0,123.861 4.234,128 9.448,128 L118.519,128 C123.739,128 128,123.861 128,118.764 L128,9.222 C128,4.134 123.739,0 118.519,0 L118.519,5.32907052e-15 Z M37.962,109.074 L18.969,109.074 L18.969,47.991 L37.962,47.991 L37.962,109.074 Z M28.467,39.639 C22.381,39.639 17.462,34.706 17.462,28.627 C17.462,22.555 22.381,17.622 28.467,17.622 C34.536,17.622 39.469,22.555 39.469,28.627 C39.469,34.706 34.536,39.639 28.467,39.639 Z M109.067,109.074 L90.104,109.074 L90.104,79.37 C90.104,72.282 89.965,63.171 80.236,63.171 C70.356,63.171 68.849,70.889 68.849,78.856 L68.849,109.074 L49.87,109.074 L49.87,47.991 L68.083,47.991 L68.083,56.334 L68.342,56.334 C70.877,51.533 77.071,46.468 86.307,46.468 C105.518,46.468 109.066,59.116 109.066,75.57 L109.066,109.075 L109.067,109.074 Z" id="Shape"></path>
        </g>
    </g>
</svg>